<?xml version="1.0" encoding="UTF-8" standalone="no"?>
<!-- Created with Inkscape (http://www.inkscape.org/) -->

<svg
   xmlns:dc="http://purl.org/dc/elements/1.1/"
   xmlns:cc="http://creativecommons.org/ns#"
   xmlns:rdf="http://www.w3.org/1999/02/22-rdf-syntax-ns#"
   xmlns:svg="http://www.w3.org/2000/svg"
   xmlns="http://www.w3.org/2000/svg"
   version="1.1"
   width="905.25"
   height="564.81256"
   id="svg3109">
  <metadata
     id="metadata3231">
    <rdf:RDF>
      <cc:Work
         rdf:about="">
        <dc:format>image/svg+xml</dc:format>
        <dc:type
           rdf:resource="http://purl.org/dc/dcmitype/StillImage" />
        <dc:title></dc:title>
      </cc:Work>
    </rdf:RDF>
  </metadata>
  <defs
     id="defs3229" />
  <style
     type="text/css"
     id="style3111" />
  <g
     transform="translate(-1163.0688,512.15486)"
     id="g4274">
    <path
       d="m 1243.3494,-512.15481 -1.1562,0.8125 -0.3126,0.78125 2.4376,4.875 1.125,2.5625 -1.7813,3.5625 0,2.28125 0.6563,1.4375 -0.8126,1.78125 0.4688,3.21875 0.9688,1.3125 -0.1563,1.28125 -1.4375,0.15625 -0.6562,-1.9375 -1.125,-2.40625 -1.7813,-1.46875 0.3125,-2.09375 2.2812,-0.5 -0.3437,-1.75 -0.3125,-1.15625 -2.0938,1.3125 -1.3124,1.125 0,2.4375 -2.25,0.15625 -3.4063,-0.96875 -2.9064,-1.46875 -3.0624,-0.65625 -4.5313,-2.09375 -3.2187,-1.9375 -2.75,-2.59375 -2.4376,-2.90625 -2.0936,-0.46875 -2.2814,9.375 1.7814,3.21875 0,7.9375 -0.625,2.90625 1.4375,7.09375 2.75,2.75 -4.375,0.65625 -0.1562,3.71875 2.5937,1.125 -1.625,4.0625 -2.75,0.3125 -0.3125,2.90625 2.25,3.21875 2.0311,-0.6875 -4.3124,1.53125 -2.2813,6.46875 -3.2187,10.03125 -3.25,6.46875 -5,14.06249 -6.4687,13.5625 -8.0939,12.625 -1.9374,2.90625 -0.7812,8.5625 0.375,12.09375 -0.062,0 -1.5,4.71875 -0.1875,7.4375 -5.1562,11.8125 -3.0624,2.59375 -0.3438,1.125 -1.7812,0.8125 -1.4376,4.1875 -0.8124,3.25 2.75,4.1875 1.625,4.21875 1.125,3.5625 -0.3126,6.46875 -1.7812,3.0625 -0.6562,5.8125 -0.9688,3.71875 1.7812,3.875 2.75,4.53125 2.25,4.84375 1.3125,4.0625 -0.3438,3.21875 -0.3125,0.5 0,2.09375 5.6563,6.3125 -0.5,2.40625 -0.625,2.28125 -0.6563,1.9375 0.1563,8.21875 2.0937,3.71875 1.9375,2.59375 2.75,0.5 0.9688,2.75 -1.125,3.5625 -2.0938,1.59375 -1.125,0 -0.8125,3.875 0.4688,2.9375 3.25,4.34375 1.625,5.34375 1.4375,4.6875 1.3125,3.0625 3.375,5.8125 1.4687,2.59375 0.4688,2.90625 1.625,0.96875 0,2.4375 -0.8125,1.9375 -1.7813,7.125 -0.4687,1.9375 2.4062,2.75 4.2187,0.46875 4.5313,1.78125 3.875,2.09375 2.9064,0 2.9061,3.09375 2.5939,4.84375 1.125,2.25 3.875,2.125 4.8436,0.78125 1.4687,2.125 0.6563,3.21875 -1.4686,0.65625 0.3124,0.96875 3.25,0.8125 2.75,0.15625 3.1563,-1.6875 3.875,4.1875 0.8125,2.28125 2.5938,4.1875 0.3124,3.25 0,9.375 0.5,1.78125 10,1.4375 19.7188,2.75 13.875,1.34375 3.9375,-0.46875 0.5937,-0.84375 -0.5624,0.84375 -0.031,0 -3.75,0.90625 -2.625,2.15625 -0.3125,1.46875 0.5,0.96875 18.9062,10.65625 12.125,7.59375 14.7188,8.59375 16.8125,10 12.2813,2.4375 24.875,2.6875 0,0.0312 15.4374,2 1.3126,-10.03125 c 9.7037,0.93404 19.6249,1.95376 29.2187,2.75 2.1482,0.51971 3.1741,1.48106 4.5313,3.375 l 1.4687,4.375 4.6875,2.28125 1.2812,3.21875 7.125,7.90625 1.2813,1.625 5,2.09375 1.1563,2.125 1.5937,0.96875 0.5,2.75 3.2187,6.46875 0,8.0625 2.2813,4.6875 7.4375,7.78125 5.1562,2.09375 1.7813,1.9375 0,0.65625 3.875,2.25 1.9375,0.65625 1.7812,1.125 2.5938,0.96875 2.4375,-2.4375 4.3437,-6.125 0.9688,-3.71875 2.2812,-3.25 3.5626,-1.4375 4.5,-1.78125 3.0937,2.25 7.4375,0.65625 6.7811,1.125 2.5939,2.09375 0,1.15625 2.5625,3.0625 6,5.34375 0.1563,1.4375 1.7812,1.9375 0.8125,4.21875 5.3436,12.28125 -0.1874,1.9375 4.2187,2.59375 3.5625,6.625 3.375,4.375 3.25,1.28125 1.5938,2.25 -1.2813,4.375 0.6563,0.96875 1.2812,0.65625 -0.3125,3.375 -0.6563,0.65625 0.6563,2.28125 3.2187,1.9375 1.3126,6.46875 2.0937,3.875 7.5937,3.375 5.1876,1.15625 4.1874,3.0625 3.25,0.65625 1.2813,-0.5 5.5,1.125 5.6563,3.875 3.0624,-1.9375 0.9688,-1.4375 -1.7812,-2.75 -0.9688,-6.15625 -1.7812,-6.9375 -0.7813,-2.4375 0.7813,-4.53125 1.1562,-3.875 1.2812,-4.53125 1.4688,-5.5 -2.2812,-1.9375 0.9687,-1.9375 4.0313,-0.3125 3.9062,-5.5 3.375,-0.65625 5.8438,-3.53125 1.75,-1.46875 6.3124,-3.40625 5.6564,-2.40625 5.3436,-3.25 2.75,-2.09375 5.6564,-5.34375 1.2813,-0.8125 2.125,-1.4375 2.5624,-1.9375 0.9688,-1.9375 9.875,-4.53125 5.6562,-1.59375 0,-0.0625 4.5938,-1.5 12.0938,0.21875 10.375,3.5625 6.4374,1.125 3.7188,-1.46875 3.25,1.125 3.2188,1 0.8124,-2.125 -3.2187,-1.125 -2.5937,0.5 -2.75,-1.625 c 0,0 0.1658,-1.30709 0.8124,-1.46875 0.6466,-0.16166 3.0626,-0.96875 3.0626,-0.96875 l 1.7812,1.46875 1.7812,-0.96875 3.25,0.625 1.4376,2.4375 0.3124,2.25 4.5313,0.34375 1.7813,1.78125 -0.8126,1.59375 -1.2812,0.8125 1.625,1.625 8.4062,3.5625 3.5313,-1.3125 1,-2.40625 2.5625,-0.65625 1.7812,-1.4375 1.3126,0.96875 0.7812,2.90625 -2.25,0.8125 0.6562,0.625 3.375,-1.28125 2.2813,-3.40625 0.8125,-0.46875 -2.125,-0.34375 0.8125,-1.59375 -0.1563,-1.46875 2.0938,-0.46875 1.1562,-1.3125 0.625,0.8125 c 0,0 -0.152,3.0625 0.6563,3.0625 0.8083,0 4.1875,0.65625 4.1875,0.65625 l 4.0625,1.9375 0.9687,1.46875 2.9063,0 1.125,0.96875 2.2813,-3.0625 0,-1.46875 -1.3126,0 -3.375,-2.75 -5.8437,-0.8125 -3.2187,-2.25 1.125,-2.75 2.25,0.3125 0.1874,-0.65625 -1.7812,-0.96875 0,-0.46875 3.2188,0 1.7812,-3.0625 -1.2812,-1.9375 -0.3438,-2.75 -1.4375,0.15625 -1.9375,2.09375 -0.6562,2.59375 -3.0626,-0.65625 -0.9687,-1.78125 1.7813,-1.9375 1.9062,-3.4375 c -3.3178,-7.78604 -1.5853,-5.00042 0.094,0.0312 l 1.125,-0.78125 2.5937,-4.21875 1.75,0.8125 6.8125,-1.9375 2.0938,0.3125 1.4687,0.8125 5.1563,0 0.031,-0.1875 2.7188,0 0.6562,0.1875 1.2812,-2.75 1.4688,-4.375 2.25,0.65625 3.0625,5.96875 0,0.96875 -2.75,1.9375 2.75,0.3125 5.5,-2.53125 0.062,-0.0312 2.875,-0.5 5.9688,-2.09375 5.9687,-0.5 4.375,-0.65625 7.5937,1.78125 8.0938,3.90625 1.625,1.4375 2.9062,1.125 1.5938,1.9375 0.3438,2.75 3.2187,-1.28125 3.875,0 3.5625,-1.9375 3.7188,-3.5625 3.0624,0.15625 0.5,-1.125 -0.8124,-0.96875 0.1562,-1.9375 4.0625,-0.8125 2.5625,0 2.9062,1.46875 4.2188,1.4375 2.4375,3.71875 2.75,0.96875 1.125,3.40625 3.375,1.625 1.625,2.5625 1.9375,0.65625 5.1875,1.28125 1.2813,3.09375 3.0624,3.71875 0,9.53125 -1.4374,4.6875 0.3124,2.75 1.3126,4.84375 1.75,4.03125 0.8124,-0.46875 1.4688,-4.53125 -2.5938,-0.96875 -0.3124,-0.65625 1.625,-0.625 4.5,0.96875 0.1874,1.59375 -3.25,5.5 -2.0937,2.4375 3.5625,3.71875 2.5625,3.0625 2.9375,5.34375 2.9062,3.875 2.0938,5 1.7812,0.34375 1.625,-2.125 1.75,1.15625 2.5938,4.03125 0.6562,3.5625 3.0626,4.34375 0.8124,-1.28125 3.875,0.3125 3.5626,2.28125 3.4062,5.15625 0.8125,3.40625 0.3125,2.90625 1.125,0.96875 1.2812,0.5 2.4376,-0.96875 1.4687,-1.625 3.875,-0.15625 3.0625,-1.46875 2.75,-3.21875 -0.5,-1.9375 -0.3125,-2.4375 0.6563,-1.9375 -0.3438,-1.9375 2.4375,-1.3125 0.3125,-3.375 -0.625,-1.78125 -0.5,-11.96875 -1.2812,-7.59375 -4.5313,-8.25 -3.5625,-5.8125 -2.5938,-5.34375 -2.9062,-2.90625 -2.9062,-7.4375 0.8124,-1.28125 1.125,-1.3125 -1.5937,-2.90625 -4.0625,-3.71875 -4.8438,-5.5 -3.7187,-6.28125 -5.3437,-9.375 -3.7188,-9.75 -2.2188,-7.09375 0,-0.0312 -0.75,-6.28125 2.25,-10 1.4688,-4.21875 -0.5,-2.59375 3.3438,-6.25 -0.5313,-1.34375 -1.9063,0.71875 c -3.0491,-1.543 -3.3782,-1.90705 -0.062,-0.25 l 1.75,-0.96875 2.125,-1.28125 5,-5.5 -0.9688,-3.21875 2.9062,-0.1875 3.5626,-3.375 1.625,-0.8125 2.25,-3.40625 2.75,-2.75 2.0937,-3.53125 2.4375,-0.65625 1.125,-2.75 1.625,-0.8125 0.4688,-6.3125 2.5937,-6.125 5.4375,-5.46875 5.25,-1.3125 4.6875,-0.46875 0.5,-2.4375 1.9375,-6.46875 3.4062,-4.6875 6.4688,-5.3125 5.1562,-2.4375 2.75,-0.65625 1.125,0.5 1.3126,0 3.0624,-4.84375 1.9376,-3.5625 -1.2813,0.46875 -2.2813,2.28125 -0.6562,-1.625 -4.1875,0 1.9375,-6.3125 -0.8125,-1.28125 -1.9375,0 0,-0.96875 -0.3125,-1.3125 1.5937,1.3125 1.4688,0.15625 2.4375,0.3125 3.7187,-1.59375 1.2813,-2.9375 0.6563,-2.09375 2.5624,-1.28125 0.3438,-4.21875 -0.8125,-0.625 2.4375,-0.1875 -0.6562,-2.25 -2.4376,-2.4375 -3.5624,-6.4375 -2.0626,-4.9375 -0.031,0 -3.5938,-5.9375 -5.7812,1.65625 -1.5938,-1.46875 2.5626,-1.40625 -0.5,-2.5 -1.7813,-1.78125 -0.094,-1.4375 -2.2813,-1.53125 -0.094,-1.625 2.6874,0.0937 0.2188,-1.375 -1.2188,-0.78125 0.4688,-1.9375 -1.375,-1.09375 0.4375,-4.6875 -0.875,-1.21875 -3.1875,-0.40625 c 0.056,-0.30071 -0.5625,-3.09375 -0.5625,-3.09375 l 0.9687,-2.09375 -1.4374,-2.09375 0,-1.78125 -2.4376,-2.09375 -2.0937,-5.5 1.2813,-5.34375 -0.1563,-2.09375 -1.2813,-1.3125 c 0,0 1.4376,-1.60336 1.4376,-2.25 0,-0.64665 0.5,-2.09375 0.5,-2.09375 l 1.9374,-1.3125 1.9376,-1.59375 0.4687,0.96875 -1.4375,1.59375 -1.3125,3.71875 0.3437,1.15625 1.7813,0.3125 0.4687,5.5 -2.0937,0.96875 0.3125,3.5625 0.5,-0.15625 1.125,-1.96875 1.625,1.78125 -1.625,1.3125 -0.3125,3.375 2.5937,3.40625 3.875,0.5 1.5938,-0.8125 3.25,4.15625 1.2812,0.53125 0.1563,1.9375 -0.7813,3.09375 -1.5937,4.1875 -0.4375,5.46875 1.4688,4.625 2.1562,-1.90625 1.8438,-4.96875 -0.4688,-3.40625 0.4375,-4.59375 2.9063,-3.78125 0.7812,-3.21875 -4.2812,1.6875 4.5312,-1.90625 2.0312,-4.03125 -0.4374,-4.90625 -0.031,0 -2.25,-7.34375 -0.9687,0.46875 -3.5626,-2.40625 -1.7812,-4.71875 -1.9375,-3.53125 -2.375,-2.15625 2.5937,2.3125 4.8438,2.25 4.0312,0.65625 0.1876,1.4375 -0.8126,0.96875 0.3126,2.75 0.8124,0 2.0938,-2.40625 0.8125,-4.84375 2.75,-4.0625 3.0625,-6.46875 1.125,-5.5 -0.625,-1.125 -0.1562,-9.375 -1.625,-3.375 -1.125,0.78125 -2.75,0.34375 -0.5,-0.5 1.125,-0.96875 2.125,-1.9375 0.062,-0.78125 1.1876,0.53125 4.0312,-1.125 5.8125,-1.96875 2.5937,-0.96875 7.0938,-5.3125 3.9062,-2.90625 3.375,-3.5625 -4.1874,-1.625 -1.3126,1.46875 -2.9062,2.75 -7.9062,3.875 -2.2813,-0.15625 -1.5937,-0.65625 -1.1563,0.65625 -2.25,2.5625 -1.4687,1.3125 -1.2813,0.3125 -0.3125,-1.28125 1.9375,-1.78125 -0.8125,-1.6875 -1.8438,-2 1.9063,1.90625 4.2813,-3.90625 3.5624,-3.21875 1.9376,-2.125 0.8124,0.65625 2.75,-1.4375 5.1563,-1.15625 c 10.9193,-4.42914 7.7355,-3.0923 7.8125,-3.125 l 2.9062,-0.96875 2.4063,-1.9375 1.125,-1.78125 1.3125,0.15625 c 9.2088,-4.98808 3.0005,-1.60075 3.0625,-1.59375 l 2.0625,-1 -0.4688,-2.25 0.8126,-1.46875 2.9062,-1.4375 0.8125,3.0625 -0.5,1.78125 -2.4063,1.46875 0,0.96875 1.9376,-1.46875 3.875,-4.53125 3.875,-1.9375 4.2187,-1.4375 -0.3437,-2.4375 -0.9688,-2.90625 -1.9375,-2.4375 -1.7813,-0.8125 -2.0937,0.1875 -0.5,0.46875 0.9687,1.28125 1.4688,-0.78125 2.0938,1.59375 0.8124,2.75 -1.7812,1.78125 -2.25,0.96875 -3.5625,-0.46875 -3.875,-6 -2.2813,-2.5625 -1.7812,0 -1.125,0.78125 -1.9375,-2.5625 0.3437,-1.46875 2.4063,-5.15625 -2.875,-4.4375 -0.1875,0.0937 0.8438,-1.0625 1,-2.96875 0.094,0.0625 1.0937,-6.25 0.1876,-4.375 1.4374,-1.28125 -0.9687,-3.25 3.0625,-3.5625 1.625,1.46875 1.3125,-0.5 5.3125,-3.0625 0.3438,-2.90625 2.9062,-0.46875 1.5938,-2.59375 -0.1563,-1.625 -0.3125,-3.0625 0.8125,-1.3125 -0.3437,-1.125 -1.2813,-1.4375 2.0937,-1.3125 1.7813,3.25 1.4687,-0.34375 0.3126,1.3125 0,1.59375 1.9374,0.1875 0.5,-2.75 0.4688,-0.65625 -1.5938,-1.46875 0.9688,-1.4375 2.4062,-1.46875 0.9688,-1.43749 1.7812,-0.15625 c 0,0 0.3219,2.09374 0.9688,2.09374 l 1.3125,0 4.8437,-5.49999 3.375,-3.0625 1.9376,-0.65625 2.125,-4.6875 0,-1.9375 -2.2813,-3.71875 -1.9375,-2.09375 -2.75,0.15625 0.5,1.125 -0.1562,0.5 -0.8126,0 -2.9062,-2.28125 -0.1875,-4.84375 -0.7813,-1.9375 -6,0 -9.0624,-29.90625 -1.9376,-0.96875 -5.9687,-2.4375 -1.4687,-0.15625 -1.75,1.78125 -4.0626,2.90625 0,0.96875 -0.8124,0.8125 -2.75,-0.65625 -1.2813,-2.25 0,-1.125 -1.2813,-0.1875 -1.3124,0 -2.0938,4.21875 -2.9062,8.875 -1.7813,4.875 0.1563,4.84375 0.1562,1.4375 -0.8125,2.75 -0.7813,0.96875 0,6 1.9376,2.40625 -1.4688,4.0625 -2.5938,4.6875 -1.3124,4.5 0,2.5625 -1.5,-0.40625 -1.4063,0.125 0,-0.0312 -0.9063,0 -0.625,1.59375 -0.6562,-0.46875 -0.9688,-0.96875 -1.4687,1.9375 -0.031,5.03125 0,0.15624 -26.0312,6.625 0,-0.0312 -7.5625,2.09375 -4.5313,1.4375 -3.2187,-0.15625 -5.5,1.3125 -3.0937,1.21875 -2.4063,1.84375 -2.0937,2.40625 -2.75,3.71875 -2.9063,4.53125 -1.4687,2.90625 -0.6563,0.8125 -5.8125,5.5 0.1562,2.59375 0.8126,1.125 1.7812,0.8125 1.7811,0 0,1.46875 -1.125,2.09375 0.3126,1.4375 1.4687,2.125 -0.1563,2.25 -1.9687,1.125 -2.0937,0 -1.625,1.9375 -1.75,3.25 -2.125,1.78125 -5.1563,0.46875 -2.5937,1.125 -2.0938,1.3125 -1.625,-0.15625 -1.9375,-1.3125 -6.3125,0.15625 -3.2188,0.5 -4.0624,1.28125 -4.3438,1.46875 -2.9062,1.78125 1.9374,6.125 1.7813,0.1875 1.2813,3.0625 0.1562,0.96875 -1.125,0.96875 -2.0938,2.75 -0.5,1.625 -1.9374,1.75 -1.7813,1.15625 -0.9687,1.59375 -1.2813,1.15625 -1.4375,1.125 -5.3438,5.03125 -1.2812,0.5 -4.2188,3 c 0,0.003 -0.031,0 -0.031,0 l -6.0938,4.03125 -3.875,2.28125 -3.4062,3.71875 -4.0312,3.875 -3.25,0.8125 -2.9063,0.46875 -5.5,2.59375 -2.0937,0.15625 -3.4063,-3.0625 -5.1563,0.65625 -2.5937,-1.46875 -2.375,-1.34375 -4.9063,0.6875 0.1563,-1.375 2.0937,-3.71875 2,-1.75 -0.2187,-5.03125 1.5937,-1.625 1.0938,-0.34375 0.2188,-3.53125 1.5312,-3.03125 1.0625,0.59375 0.1563,0.65625 0.8124,0.15625 1.9376,-0.96875 -0.3126,-9.53125 -3.25,-8.25 -2.25,-9.0625 -2.4374,-3.21875 -2.5626,-1.78125 -1.625,1.125 -3.875,1.78125 -1.9374,5 -2.75,3.71875 -1.1563,0.65625 -1.4375,-0.65625 c 0,0 -2.5992,-1.44711 -2.4375,-2.09375 0.1616,-0.64664 0.5,-5 0.5,-5 l 3.375,-1.3125 0.8125,-3.375 0.6562,-2.59375 2.4376,-1.625 -0.3438,-10.03125 -1.5938,-2.25 -1.3124,-0.8125 -0.8126,-2.09375 0.8126,-0.8125 1.625,0.3125 0.1562,-1.59375 -2.4375,-2.28125 -1.2813,-2.59375 -2.5937,0 -4.5313,-1.4375 -5.4687,-3.40625 -2.75,0 -0.6563,0.65625 -0.9687,-0.5 -3.0625,-2.25 -2.9375,1.78125 -2.9063,2.25 0.3438,3.5625 0.9688,0.3125 2.0937,0.5 0.5,0.8125 -2.5937,0.8125 -2.5938,0.3125 -1.4688,1.78125 -0.3124,2.09375 0.3124,1.625 0.3438,5.5 -3.5625,2.09375 -0.6563,-0.15625 0,-4.21875 1.3126,-2.40625 0.625,-2.4375 -0.8126,-0.8125 -1.9374,0.8125 -0.9688,4.21875 -2.75,1.125 -1.75,1.9375 -0.1875,0.96875 0.6563,0.8125 -0.6563,2.59375 -2.25,0.46875 0,1.125 0.8125,2.4375 -1.125,6.15625 -1.625,4.03125 0.6562,4.6875 0.4688,1.125 -0.8125,2.4375 -0.3125,0.8125 -0.3438,2.71875 3.5626,6 2.9062,6.46875 1.4688,4.84375 -0.8126,4.6875 -0.9687,5.96875 -2.4375,5.1875 -0.3125,2.75 -3.25,3.09375 -2.7187,1.53125 -2.0938,1.9375 -1.125,0.3125 -1.4688,-0.96875 -3.0624,-0.90625 c 0,0 -0.49,-0.73325 -0.5,-0.71875 l -0.8126,-2.59375 -1.3124,-3.71875 -1.5938,-1.75 -1.4688,-2.59375 -0.2187,-5.5 0.031,0 -0.063,-3.15625 -1.1562,-4.53125 -0.6562,-6.15625 -1.125,-2.40625 0.9687,-3.0625 0.8125,-2.9375 1.4375,-2.5625 -0.6563,-3.40625 -0.625,-3.5625 0.4688,-1.78125 1.9375,-2.40625 0.1563,-2.75 -0.7813,-1.3125 0.625,-2.5625 -0.4375,-4.1875 2.75,-5.65625 2.9062,-6.78125 0.1563,-2.28125 -0.3125,-0.96875 -0.8125,0.5 -4.2187,6.3125 -2.75,4.03125 -1.9376,1.78125 -0.8124,2.25 -1.9376,0.8125 -1.125,1.9375 -1.4687,-0.3125 -0.1563,-1.78125 1.2813,-2.4375 2.125,-4.6875 1.75,-1.59375 0.9687,-2.28125 0.031,0.0312 3.1875,-7 0.9688,-4.0625 1.9374,-4.34375 0.8126,-0.15625 1.125,1.59375 0.6562,0 4.5,-2.40625 1.4688,1.59375 0.5,0.1875 1.2812,-1.15625 1.125,-3.0625 2.4375,-0.8125 6.9375,-0.65625 1.9375,-2.5625 5.1875,-0.15625 5.8125,1.28125 1.7813,0 3.2187,-1.46875 2.2813,0.1875 2.0937,-0.65625 3.7187,0.46875 0.8126,0.34375 1.2812,-0.34375 -1.2812,-0.96875 -1.2813,-0.625 -3.25,-3.09375 0,-6.9375 -1.4687,-0.5 -1.125,1.15625 -6.125,1.59375 -1.9376,0.5 -2.9062,-0.8125 -0.5,-0.3125 0,-5.65625 -1.4688,-0.1875 -2.5624,1.3125 -4.5313,1.9375 -6.625,0.3125 -3.4063,1.125 -4.0312,3.5625 -1.625,0.96875 -1.125,0 -1.3125,0.8125 -1.5937,-0.46875 -1.625,-1.3125 -1.4688,0.96875 -3.875,0.15625 -2.75,-2.71875 -1.4375,-3.09375 -1.4687,-1.125 -3.2188,-0.96875 -2.2812,0 -1.2813,-1.28125 -3.5625,2.90625 -0.9688,1.125 -0.8124,-0.5 0.3437,-2.5625 2.4063,-3.24999 0.5,-2.40625 2.25,-0.8125 1.4687,-3.09375 3.7187,-0.96875 0.3126,-0.96875 -1.125,-1.125 -4.6876,0.5 -4.375,2.40625 -2.25,2.28125 -1.3124,1.78125 -1.7813,0.78125 -1.9375,2.93749 -0.1562,1.28125 -4.375,2.09375 -2.4063,1.9375 -6,0.96875 -0.625,0.65625 0,0.96875 -3.5625,2.25 -2.75,0.8125 -0.7188,0.59375 c 2.627,3.62895 2.6388,3.64064 -0.031,0.0312 l -0.75,0.53125 -1.1875,-0.15625 -0.6563,-1.125 -1.3124,0.28125 -1.1563,0.1875 -1.75,0.96875 -0.9687,-0.65625 0.625,-1.9375 1.9374,-3.0625 1.1563,-1.15625 -1.9687,-1.4375 -2.0938,0.8125 -2.9062,1.9375 -7.4376,3.21875 -2.9062,0.65625 -2.9062,-0.5 -0.9688,-0.875 0.2812,-0.375 4.3438,-2.75 1.2812,-0.15625 4.5313,-5 1.7813,-0.8125 2.2812,-3.87499 2.4062,-3.5625 3.0626,-2.59375 4.7812,-2 9.25,-4.0625 3.9375,-1.84375 0.625,-2.28125 -4.4375,0.375 -0.7188,1.09375 -0.6562,0 -1.7812,-3.09375 -8.875,0.34375 -0.9688,0.8125 -0.9688,0 -0.5,-1.3125 -0.8124,-1.78125 -2.5938,0.5 -3.2188,3.21875 -1.625,0.8125 -3.0624,0 -2.5938,-0.96875 0,-2.09375 -1.2812,-0.15625 -0.5,0.46875 -2.5626,-1.28125 -0.5,-2.90625 -1.4687,0.46875 -0.4687,0.96875 -2.4376,-0.46875 -5.3124,-2.4375 -3.9063,-2.59375 -2.9063,0 -1.2812,-0.96875 -2.25,0.65625 -1.1562,1.125 -0.3126,1.3125 -4.8437,0 0,-2.125 -6.3125,-0.3125 -0.3125,-1.46875 -4.875,0 -1.5937,-1.59375 -1.4688,-6.15625 -0.8125,-5.5 -1.9375,-0.8125 -2.25,-0.46875 -0.6562,0.15625 -0.3126,8.25 c -32.452,-0.0332 -28.6271,-0.0115 -30.25,-0.0312 l -28.6562,-0.5625 -18.5938,-0.65625 -26.5,-1.28125 c -49.1702,-2.14013 -53.2865,-5.11292 -53.7187,-5 l -29.25,-3.5625 -29.25,-4.03125 -32.3437,-5.34375 -18.4376,-3.375 c 0,0 -31.2438,-6.54236 -32.7812,-6.9375 -24.2855,-4.54301 -3.6638,-0.72275 -13.5312,-2.625 l -15.2188,-3.21875 -22.9688,-5.65625 -20.0312,-5.65625 -8.5625,-1.9375 -9.7187,-2.75 -4.3438,-1.4375 z m -5.4375,5.5625 -1.5314,1.625 -0.4686,-1.375 -2.0314,0.15625 0.5,2.5 1.5314,2.28125 0.7186,-0.65625 0.3126,-1.46875 1.7187,0.5625 c 0,0 -1.4687,2.27043 -1.4687,2.59375 0,0.3233 0.9062,0.25 0.9062,0.25 l 1.375,-0.40625 0.7188,-2.03125 -0.6563,-0.8125 1.5313,-1.6875 -0.8126,-1.53125 z m 496.625,61.5625 -2.2814,0.5625 -5.375,3.90625 -2.1561,0.78125 -1.8439,2.0625 1.5939,1.15625 2.0625,-0.9375 3.3125,-1.9375 5.1561,-5.15625 z m 318.75,25.34374 -2.0314,0.71875 -1.375,2.28125 1.7814,1.84375 c 0,0 1.2813,0.0733 1.2813,-0.25 0,-0.32332 0.25,-2 0.25,-2 l 0.9062,-0.8125 z m -8.5625,7.34375 -1.5625,1.53125 1.7813,2.84375 1.7187,-0.90625 -0.5937,-2.40625 z m -232.5,4.71875 -2.1875,0.25 -1.625,0.15625 -0.3125,1.15625 0.9688,0.46875 0.625,2.5 3.25,0.15625 1.2812,-1.1875 c 0,0 -0.083,-1.46333 -0.4062,-1.625 -0.3234,-0.16166 -1.5938,-1.875 -1.5938,-1.875 z m 231.2812,58.6875 -0.4374,1.71875 -2.1876,0.6875 -0.4374,0.5625 3.875,-0.0937 1.25,-0.46875 -1.0313,-2.28125 -1.0314,-0.125 z m -9.7187,0.59375 -2.2813,2.625 1.1563,0.90625 2.1563,-1.03125 2.4062,-1.03125 -1.8125,-1.46875 z m -45.5,14.6875 0.062,3 -1.0312,1.84375 0.9687,-1.90625 0,-2.9375 z m -7.1875,5.9375 2.6562,0.5625 2.8126,1.6875 0,0.0937 0.1874,2.03125 -0.5,2.75 0.1876,2.96875 -0.3438,-3.03125 0.5938,-2.75 -0.125,-1.96875 -2.8126,-1.75 -2.6562,-0.59375 z m -14.1562,68.90625 -1.8438,0.46875 1.125,2.5 0.1562,1.78125 1.125,1.875 c 0,0 0.9063,-0.89543 0.9063,-1.21875 0,-0.32332 -0.75,-3.0625 -0.75,-3.0625 z m 19,48.21875 -0.75,0.21875 0.6562,1.875 1.4688,2.34375 0.625,6.125 -0.1563,2.03125 -1.5313,0.65625 -3.1562,2.59375 -2.5938,2.5 1.0626,0.15625 1.125,-1.21875 2.8437,-2.40625 3.375,-1.5625 0.1875,-3.375 -0.4062,-4.4375 z m -784.9688,28.65625 -1.2188,0.625 0.8126,1.46875 1.625,1.625 4.5312,0.25 0.875,-0.65625 -3.0625,-1.21875 z m -3.1562,0.625 -3.3126,0.0937 0.6563,1.46875 0.5625,1.1875 3.2188,0.0937 0.1874,-1.28125 -1.3124,-1.5625 z m 23.6874,18.4375 -1.0624,0.15625 0,1.21875 1.7812,2.34375 0.8125,0.96875 1.5313,0.5625 0.5624,-1.4375 -0.9687,-1.78125 z m -2.5,10.03125 -0.5,0.0937 0,2.15625 c 0,0.40416 0.75,1.875 0.75,1.875 l 1.2813,1.21875 1.4687,-0.25 -1.2187,-1.9375 z m 448.1563,109.8125 0.062,1.59375 -0.125,-1.46875 0.062,-0.125 z m -56.5937,38.03125 -3.1563,3.5625 -3.4687,5.40625 -3.3126,6.875 -1.5624,8.25 0.5937,7.03125 2.7187,7.1875 0.5938,7.125 0.875,-0.25 -0.1562,-1.46875 -0.5,-5.15625 -2.5626,-7.1875 -0.9062,-6.15625 0.3125,-5.15625 2.0313,-6.65625 4.375,-6.53125 4.75,-6.625 z m 333.2187,30.90625 -0.75,0.46875 -0.9687,2.84375 -1.4376,4.59375 -3.25,5.28125 -4.3437,4.1875 -3.4063,1.9375 -2.5,1.53125 1.2188,1.0625 2.75,-2.09375 5.3125,-4.21875 3.7187,-3.875 2.5,-6.625 1,-1.6875 z m -22.6563,21 -2.3437,1.625 -1.4375,2.34375 -1.3125,0.25 -2.4063,0.65625 0.875,0.875 2.3438,-1.21875 4.2188,-1.4375 3.4687,-1.21875 -0.4063,-1.0625 -1.6874,-0.3125 z"
       id="rect4245"
       style="fill:#2b2b2b;fill-opacity:1;stroke:none" />
    <path
       d="m 1400.0411,-241.50079 c 0.1071,0.3694 0.1728,0.74461 0.2949,1.09906 0.42,1.21817 0.9501,2.40955 1.6114,3.57711 0.036,0.0357 0.03,0.0953 0.066,0.14309 l 32.3041,56.61416 c 6.0998,10.69261 19.7292,14.41565 30.4307,8.31282 10.6926,-6.08794 14.4246,-19.73215 8.3188,-30.43068 l -5.6143,-9.83781 111.3131,30.43666 -12.3605,45.21271 c -13.3047,48.65872 15.4521,99.0688 64.1079,112.37049 48.6647,13.32258 99.0837,-15.4432 112.3973,-64.093 13.2987,-48.67066 -15.476,-99.08072 -64.1228,-112.37945 l -45.2186,-12.36647 14.8058,-54.14502 103.4947,28.3011 -9.5935,5.47736 c -1.7781,1.01566 -3.3567,2.23087 -4.7357,3.60987 -6.9279,6.92787 -8.6851,17.88851 -3.592,26.81786 6.1088,10.70153 19.7292,14.42756 30.4366,8.3247 l 56.6261,-32.29816 c 0.822,-0.47061 1.5845,-0.99482 2.3202,-1.54585 0.4677,-0.34843 0.9292,-0.697 1.3612,-1.08114 7.8064,-6.85338 9.9866,-18.43358 4.6434,-27.80373 10e-5,-0.005 -0.01,-0.0105 -0.013,-0.0171 l -32.3072,-56.6172 c -6.1088,-10.70154 -19.7351,-14.4216 -30.4307,-8.31884 -1.7751,1.01268 -3.3567,2.23086 -4.7297,3.60391 -6.9279,6.92785 -8.6792,17.90041 -3.5861,26.82382 l 5.7544,10.09097 -103.879,-28.40539 8.3307,-28.76872 4.4617,-16.3278 c 6.4483,-23.56839 3.3418,-48.23877 -8.7715,-69.46609 -12.1252,-21.22734 -31.7651,-36.46503 -55.3424,-42.91036 -32.8194,-8.98005 -66.4192,1.18541 -88.9123,23.67858 -10.8564,10.8564 -19.1275,24.5959 -23.4612,40.43825 -13.3017,48.66171 15.4522,99.07476 64.1079,112.38241 l 44.7898,12.2533 -14.8058,54.1331 -111.334,-30.4456 9.8586,-5.62327 c 10.6836,-6.08495 14.4216,-19.72918 8.3188,-30.43665 -6.1058,-10.69856 -19.7321,-14.41265 -30.4307,-8.31282 l -56.629,32.30715 c -1.1467,0.65821 -2.1802,1.42368 -3.1691,2.23979 -0.2204,0.1846 -0.4348,0.37533 -0.6492,0.56592 -0.2979,0.27398 -0.6255,0.51824 -0.9055,0.79822 -0.417,0.41698 -0.7476,0.87265 -1.1228,1.31947 -0.2859,0.33367 -0.5809,0.65225 -0.8578,0.99478 -0.6971,0.91731 -1.2986,1.89429 -1.8467,2.89502 -0.098,0.19363 -0.2293,0.35443 -0.3216,0.54214 -0.6196,1.23905 -1.0991,2.51679 -1.4893,3.84813 -0.023,0.10146 -0.08,0.19361 -0.1072,0.28 -0.089,0.28011 -0.074,0.56291 -0.1489,0.83991 -0.2264,0.97097 -0.3991,1.95384 -0.4974,2.93376 -0.048,0.48844 -0.074,0.96206 -0.086,1.4505 -0.024,0.89355 0,1.79004 0.083,2.68658 0.045,0.46762 0.075,0.94416 0.1459,1.40879 0.1698,0.95011 0.4111,1.88831 0.688,2.82058 z m 139.4475,-150.11028 c 6.8326,-24.93547 32.6556,-39.67279 57.5673,-32.86408 12.0835,3.30307 22.1536,11.10958 28.3606,21.99278 6.1892,10.8594 7.7976,23.50585 4.4856,35.58638 l -4.3068,15.81553 -5.3791,17.92423 -3.1005,11.36276 -44.7808,-12.25032 c -24.9325,-6.81759 -39.6669,-32.63772 -32.8462,-57.56725 z m 127.5248,234.17076 c 24.9295,6.81465 39.6668,32.64366 32.8611,57.57023 -2.2101,8.1132 -6.4543,15.14532 -12.012,20.7031 -11.5266,11.52656 -28.7628,16.73584 -45.5642,12.13415 -12.0864,-3.30022 -22.1506,-11.10661 -28.3457,-21.98385 -6.2101,-10.87426 -7.7977,-23.51181 -4.4945,-35.58937 l 12.3605,-45.21266 45.1948,12.3784 z"
       id="path4255"
       style="fill:#ffffff;fill-opacity:1;stroke:#2b2b2b;stroke-width:4;stroke-miterlimit:4;stroke-opacity:1;stroke-dasharray:none" />
  </g>
</svg>
